# Blender 4.4.3
# www.blender.org
mtllib crystal.mtl
o Circle
v -0.207107 4.000000 -0.207107
v -0.207107 4.000000 1.207107
v 1.207107 4.000000 1.207107
v 1.207107 4.000000 -0.207107
v 0.500000 6.373135 0.500000
v -0.207107 2.373137 -0.207107
v 1.207107 2.373137 -0.207107
v 1.207107 2.373137 1.207107
v -0.207107 2.373137 1.207107
v 0.500000 0.000003 0.500000
vn -0.0000 0.2856 -0.9584
vn -0.0000 0.2856 0.9584
vn 0.9584 0.2856 -0.0000
vn -0.9584 0.2856 -0.0000
vn -0.9584 -0.2856 -0.0000
vn 0.9584 -0.2856 -0.0000
vn -0.0000 -0.2856 0.9584
vn -0.0000 -0.2856 -0.9584
vn -1.0000 -0.0000 -0.0000
vn -0.0000 -0.0000 -1.0000
vn 1.0000 -0.0000 -0.0000
vn -0.0000 -0.0000 1.0000
vt 0.234805 0.374507
vt 0.012902 0.374507
vt 0.123853 0.002141
vt 0.485472 0.374319
vt 0.263569 0.374319
vt 0.374520 0.001953
vt 0.738076 0.376272
vt 0.516173 0.376272
vt 0.627125 0.003906
vt 0.987077 0.384478
vt 0.765175 0.384478
vt 0.876126 0.000000
vt 0.765175 0.637076
vt 0.987077 0.637076
vt 0.876126 0.989536
vt 0.516173 0.631541
vt 0.738076 0.631541
vt 0.627125 1.003906
vt 0.263569 0.629588
vt 0.485472 0.629588
vt 0.374520 1.001953
vt 0.012902 0.629775
vt 0.234805 0.629776
vt 0.123853 1.002141
s 0
usemtl texture0
f 4/1/1 1/2/1 5/3/1
f 2/4/2 3/5/2 5/6/2
f 3/7/3 4/8/3 5/9/3
f 1/10/4 2/11/4 5/12/4
f 9/13/5 6/14/5 10/15/5
f 7/16/6 8/17/6 10/18/6
f 8/19/7 9/20/7 10/21/7
f 6/22/8 7/23/8 10/24/8
f 2/11/9 1/10/9 6/14/9 9/13/9
f 1/2/10 4/1/10 7/23/10 6/22/10
f 4/8/11 3/7/11 8/17/11 7/16/11
f 3/5/12 2/4/12 9/20/12 8/19/12
