# Blender 4.4.3
# www.blender.org
mtllib crystal.mtl
o Circle
v 0.497298 1.506158 -0.558956
v -0.047720 1.710799 -0.310790
v -0.529356 1.396449 0.501139
v -0.236463 1.396449 1.208246
v 0.506325 1.659107 1.444998
v 1.306669 1.548260 1.175399
v 1.471669 1.376817 0.554868
v 1.155612 1.625207 -0.110797
v 0.484431 5.545891 -0.492479
v -0.143084 5.636794 -0.299436
v -0.427598 5.361985 0.444737
v -0.199878 5.395658 1.184466
v 0.505172 5.660290 1.404677
v 1.187744 5.541960 1.284339
v 1.511746 5.597596 0.534198
v 1.210153 5.516448 -0.119481
v 0.403297 7.271346 0.437247
v 0.500000 0.000261 0.500000
vn 0.9420 0.0054 0.3356
vn -0.3039 0.0090 0.9526
vn -0.8969 -0.0018 -0.4423
vn 0.9050 -0.0121 -0.4252
vn 0.2537 -0.0045 0.9673
vn -0.9409 0.0197 0.3381
vn -0.3512 0.0044 -0.9363
vn 0.5101 0.0036 -0.8601
vn 0.4236 0.4451 -0.7890
vn 0.5515 -0.4792 -0.6828
vn 0.7648 0.5279 0.3695
vn -0.4155 0.4488 0.7911
vn -0.8988 0.3903 -0.1995
vn 0.7694 0.4855 -0.4152
vn 0.2344 0.5113 0.8268
vn -0.8862 0.3867 0.2552
vn -0.2003 0.4574 -0.8664
vn -0.5072 -0.4964 -0.7046
vn -0.7635 -0.5631 0.3162
vn 0.2185 -0.4837 0.8475
vn 0.7094 -0.4802 -0.5160
vn 0.7577 -0.5489 0.3531
vn -0.1015 -0.4921 0.8646
vn -0.6574 -0.4842 -0.5774
vt 0.269835 0.006578
vt 0.269835 0.540722
vt 0.373188 0.533010
vt 0.351244 0.027682
vt 0.147995 0.044187
vt 0.153182 0.550518
vt 0.246419 0.516382
vt 0.246419 0.010269
vt 0.011798 0.020570
vt 0.034255 0.522107
vt 0.135715 0.554968
vt 0.132013 0.058019
vt 0.393135 0.038356
vt 0.395271 0.530825
vt 0.486375 0.541043
vt 0.486375 0.006897
vt 0.735816 0.534559
vt 0.716662 0.029121
vt 0.628931 0.014280
vt 0.628931 0.520634
vt 0.887492 0.008006
vt 0.887492 0.514117
vt 0.985449 0.510150
vt 0.984345 0.008114
vt 0.516582 0.034332
vt 0.516582 0.531301
vt 0.599363 0.517799
vt 0.591704 0.006578
vt 0.858498 0.526198
vt 0.858498 0.014919
vt 0.755220 0.018005
vt 0.757820 0.510470
vt 0.451285 0.604108
vt 0.221397 0.697786
vt 0.475681 0.704511
vt 0.763582 0.774451
vt 0.863414 0.986995
vt 0.863414 0.754030
vt 0.191627 0.751980
vt 0.291113 0.986053
vt 0.291113 0.722921
vt 0.612892 0.670195
vt 0.606451 0.908262
vt 0.711946 0.663359
vt 0.014802 0.747793
vt 0.254282 0.637855
vt 0.017121 0.641170
vt 0.310481 0.749175
vt 0.400663 0.987025
vt 0.400663 0.732688
vt 0.425529 0.727723
vt 0.422682 0.990840
vt 0.505159 0.767423
vt 0.494698 0.671492
vt 0.591570 0.919933
vt 0.591570 0.656423
vt 0.098212 0.761818
vt 0.178280 0.985079
vt 0.178280 0.736838
vt 0.008238 0.770582
vt 0.082994 0.991228
vt 0.082994 0.741855
vt 0.880156 0.699138
vt 0.892775 0.918284
vt 0.975598 0.715615
vt 0.974393 0.580561
vt 0.757987 0.687966
vt 0.994834 0.686394
vt 0.520939 0.641646
vt 0.731151 0.605276
vt 0.504288 0.544660
vt 0.729335 0.675006
vt 0.634465 0.892029
vt 0.783477 0.739361
vt 0.992489 0.980774
vt 0.990545 0.761843
vt 0.888385 0.980774
vt 0.767739 0.861514
vt 0.549673 0.982485
vt 0.769127 0.987418
s 0
usemtl texture0
f 7/1/1 15/2/1 14/3/1 6/4/1
f 5/5/2 13/6/2 12/7/2 4/8/2
f 3/9/3 11/10/3 10/11/3 2/12/3
f 8/13/4 16/14/4 15/15/4 7/16/4
f 6/17/5 14/18/5 13/19/5 5/20/5
f 4/21/6 12/22/6 11/23/6 3/24/6
f 2/25/7 10/26/7 9/27/7 1/28/7
f 1/29/8 9/30/8 16/31/8 8/32/8
f 9/33/9 17/34/9 16/35/9
f 8/36/10 18/37/10 1/38/10
f 15/39/11 17/40/11 14/41/11
f 13/42/12 17/43/12 12/44/12
f 11/45/13 17/46/13 10/47/13
f 16/48/14 17/49/14 15/50/14
f 14/51/15 17/52/15 13/53/15
f 12/54/16 17/55/16 11/56/16
f 10/57/17 17/58/17 9/59/17
f 1/60/18 18/61/18 2/62/18
f 3/63/19 18/64/19 4/65/19
f 5/66/20 18/67/20 6/68/20
f 7/69/21 18/70/21 8/71/21
f 6/72/22 18/73/22 7/74/22
f 4/75/23 18/76/23 5/77/23
f 2/78/24 18/79/24 3/80/24
